<?xml version="1.0" encoding="utf-8"?>
<!-- Generator: Adobe Illustrator 16.0.0, SVG Export Plug-In . SVG Version: 6.00 Build 0)  -->
<!DOCTYPE svg PUBLIC "-//W3C//DTD SVG 1.1//EN" "http://www.w3.org/Graphics/SVG/1.1/DTD/svg11.dtd">
<svg version="1.1"
	 id="svg2" inkscape:export-filename="/home/hb205/Masa  st  /hook.png" sodipodi:docname="hook.svg" inkscape:export-xdpi="300" inkscape:version="0.48.3.1 r9886" inkscape:export-ydpi="300" xmlns:rdf="http://www.w3.org/1999/02/22-rdf-syntax-ns#" xmlns:cc="http://creativecommons.org/ns#" xmlns:svg="http://www.w3.org/2000/svg" xmlns:sodipodi="http://sodipodi.sourceforge.net/DTD/sodipodi-0.dtd" xmlns:dc="http://purl.org/dc/elements/1.1/" xmlns:inkscape="http://www.inkscape.org/namespaces/inkscape"
	 xmlns="http://www.w3.org/2000/svg" xmlns:xlink="http://www.w3.org/1999/xlink" x="0px" y="0px" width="792px" height="792px"
	 viewBox="176.547 45.453 792 792" enable-background="new 176.547 45.453 792 792" xml:space="preserve">
<rect x="176.547" y="45.453" fill="#F0DB4F" width="792" height="792"/>
<sodipodi:namedview  id="base" inkscape:window-x="0" inkscape:window-y="27" inkscape:window-height="685" inkscape:window-maximized="1" inkscape:window-width="1366" inkscape:current-layer="layer1" inkscape:pageopacity="0.0" bordercolor="#666666" showgrid="false" inkscape:cx="-931.89396" borderopacity="1.0" inkscape:cy="419.50369" inkscape:zoom="0.35" pagecolor="#ffffff" inkscape:document-units="px" inkscape:pageshadow="2">
	</sodipodi:namedview>
<path id="path2985" sodipodi:nodetypes="sssssscsssssss" inkscape:connector-curvature="0" fill="#241F1C" d="M837.814,128.25
	c-13.853,10.705,4.495,36.424,5.392,45.634c3.597,36.946,66.605,38.741,72.904,0.113c-1.206-7.872,17.931-33.574,4.877-43.897
	C916.328,126.415,842.527,124.607,837.814,128.25z"/>
<path id="path2989" sodipodi:nodetypes="ccc" inkscape:connector-curvature="0" fill="none" stroke="#FF6600" stroke-width="2" stroke-miterlimit="10" enable-background="new    " d="
	M882.401,45.453l0.601,143.667"/>
<rect x="842.547" y="178.453" fill="#FF6600" enable-background="new    " width="74.759" height="24.667"/>
<image overflow="visible" width="1052" height="1052" xlink:href="1E6B41AE.jpg"  transform="matrix(1 0 0 1 1408.0005 -19.3188)">
</image>
<circle fill="#241F1C" cx="772.547" cy="405.786" r="144"/>
<circle fill="#F0DB4F" cx="769.547" cy="398.786" r="75"/>
<rect x="615.547" y="207.786" fill="#F0DB4F" width="258" height="174"/>
<path fill="#241F1C" d="M630.649,382.885c0,0,5.898-66.099,85.898-68.099c0,0-14.396,29.794-20.781,68.95"/>
<g>
	<path fill="#241F1C" d="M959.315,517.911l-60.711,6.431c-1.699-22.592-6.764-40.155-15.197-52.702
		c-8.433-12.548-21.963-20.987-40.59-25.322c-17.271-4.019-31.8-2.011-43.586,6.015c-11.791,8.028-19.221,18.658-22.3,31.893
		c-3.396,14.598-0.818,27.455,7.745,38.576c8.559,11.118,27.253,26.374,56.083,45.762c24.575,16.562,43.061,31.188,55.445,43.889
		c12.386,12.699,21.272,27.912,26.661,45.628c5.389,17.721,5.689,36.866,0.904,57.431c-7.766,33.376-26.168,59.061-55.205,77.051
		c-29.038,17.994-64.805,22.045-107.298,12.158c-73.345-17.065-110.126-64.689-110.343-142.875l62.652-2.91
		c-1.095,51.288,19.994,81.968,63.266,92.035c21.146,4.921,38.479,3.177,51.994-5.236c13.511-8.41,22.145-20.668,25.893-36.775
		c2.753-11.834,1.521-23.679-3.699-35.53c-5.221-11.848-21.537-26.997-48.947-45.444c-29.025-19.434-49.599-34.959-61.723-46.577
		c-12.131-11.614-21.242-26.726-27.345-45.327c-6.104-18.602-6.741-38.279-1.909-59.045c7.357-31.625,24.555-55.648,51.59-72.062
		c27.031-16.414,58.787-20.378,95.27-11.89C922.579,408.116,956.359,449.725,959.315,517.911z"/>
</g>
<rect x="843.553" y="203.102" fill="#241F1C" width="73.21" height="206.536"/>
</svg>
